D:\school\WTK\thesis\model\3dpredictsim\Results\Batchsim_tmt_linear_v2\Pog_s1_tmt_bCst_d00_k800_ig24_pas_GRF.mot
nRows=12
nColumns=19

name D:\school\WTK\thesis\model\3dpredictsim\Results\Batchsim_tmt_linear_v2\Pog_s1_tmt_bCst_d00_k800_ig24_pas_GRF.mot
datacolumns 19
datarows 12
range 0.0000000000 0.1201434447
endheader
time 	ground_force_vx	ground_force_vy	ground_force_vz	ground_force_px	ground_force_py	ground_force_pz	1_ground_force_vx	1_ground_force_vy	1_ground_force_vz	1_ground_force_px	1_ground_force_py	1_ground_force_pz	ground_torque_x	ground_torque_y	ground_torque_z	1_ground_torque_x	1_ground_torque_y	1_ground_torque_z
        0.0000000000	      -82.0174760345	       63.6529654577	       19.1774968196	        0.1573524865	        0.0000000000	        0.0461611258	       96.2394909312	      409.0097978806	        1.6032679684	       -0.3524435811	        0.0000000000	       -0.0444168473	        0.0000000000	        0.0000000000	        0.0000000000	        0.0000000000	        0.0000000000	        0.0000000000	
        0.0109221313	     -146.7639717735	      149.5439786941	       48.5218034395	        0.1653521814	        0.0000000000	        0.0445570546	       57.4374202697	      300.2764876843	       -4.6738096830	       -0.3328111363	        0.0000000000	       -0.0405499946	        0.0000000000	        0.0000000000	        0.0000000000	        0.0000000000	        0.0000000000	        0.0000000000	
        0.0218442627	      -69.9719685558	      319.1202166581	       18.1133779545	        0.1721943875	        0.0000000000	        0.0430963943	       22.3609176923	      200.4987507992	       -9.4281598289	       -0.3026755720	        0.0000000000	       -0.0335217286	        0.0000000000	        0.0000000000	        0.0000000000	        0.0000000000	        0.0000000000	        0.0000000000	
        0.0327663940	      -72.1996009548	      540.5423979515	       -2.3568767125	        0.1785776472	        0.0000000000	        0.0441043612	        2.3419056115	      146.8347829573	      -11.4237834764	       -0.2810404795	        0.0000000000	       -0.0264426947	        0.0000000000	        0.0000000000	        0.0000000000	        0.0000000000	        0.0000000000	        0.0000000000	
        0.0436885253	     -116.9373917281	      806.8747974130	      -14.8175613006	        0.1884574847	        0.0000000000	        0.0468450899	       -0.0834210250	      115.9167904020	      -11.0872085022	       -0.2812060937	        0.0000000000	       -0.0267352652	        0.0000000000	        0.0000000000	        0.0000000000	        0.0000000000	        0.0000000000	        0.0000000000	
        0.0546106567	     -140.8512181327	      961.0086920057	      -21.0088245747	        0.1949757313	        0.0000000000	        0.0485296902	       -3.2520117712	       76.5614737098	      -10.3448913398	       -0.2807583254	        0.0000000000	       -0.0268338285	        0.0000000000	        0.0000000000	        0.0000000000	        0.0000000000	        0.0000000000	        0.0000000000	
        0.0655327880	     -142.7058283049	      985.8457905158	      -21.8162861595	        0.1994124193	        0.0000000000	        0.0495626123	       -8.3617190422	       32.2757211729	       -6.2120186653	       -0.2810899914	        0.0000000000	       -0.0268347780	        0.0000000000	        0.0000000000	        0.0000000000	        0.0000000000	        0.0000000000	        0.0000000000	
        0.0764549193	     -129.0687565271	      942.0899310221	      -21.3695983498	        0.2031059554	        0.0000000000	        0.0502705601	        0.1675768489	       -0.1706653586	        0.0138938567	        0.0000000000	        0.0000000000	        0.0000000000	        0.0000000000	        0.0000000000	        0.0000000000	        0.0000000000	        0.0000000000	        0.0000000000	
        0.0873770507	     -111.5030500300	      876.3078562800	      -19.6769827275	        0.2069594580	        0.0000000000	        0.0508455499	        0.0002602149	       -0.0002182719	       -0.0000041651	        0.0000000000	        0.0000000000	        0.0000000000	        0.0000000000	        0.0000000000	        0.0000000000	        0.0000000000	        0.0000000000	        0.0000000000	
        0.0982991820	      -99.3441626789	      823.7666332890	      -19.2816598558	        0.2117846242	        0.0000000000	        0.0515122971	        0.0001122879	       -0.0000821799	       -0.0000041223	        0.0000000000	        0.0000000000	        0.0000000000	        0.0000000000	        0.0000000000	        0.0000000000	        0.0000000000	        0.0000000000	        0.0000000000	
        0.1092213133	      -91.1849938531	      786.5272938548	      -18.4912960946	        0.2177569516	        0.0000000000	        0.0517413591	        0.0009486061	       -0.0006222893	       -0.0000431138	        0.0000000000	        0.0000000000	        0.0000000000	        0.0000000000	        0.0000000000	        0.0000000000	        0.0000000000	        0.0000000000	        0.0000000000	
        0.1201434447	      -81.7167008896	      746.0771047676	      -18.0385534815	        0.2236208750	        0.0000000000	        0.0518030139	        0.0095682799	       -0.0057472637	       -0.0004751430	        0.0000000000	        0.0000000000	        0.0000000000	        0.0000000000	        0.0000000000	        0.0000000000	        0.0000000000	        0.0000000000	        0.0000000000	
